<svg preserveAspectRatio="none" overflow="visible" style="display: block;" width="22" height="22" viewBox="0 0 22 22" fill="none" xmlns="http://www.w3.org/2000/svg">
<g id="phone">
<path id="Vector" d="M6.05 9.9C7.37194 12.5088 9.49125 14.6281 12.1 15.95L14.1167 13.9333C14.3917 13.6583 14.7583 13.5667 15.0333 13.75C16.0417 14.1167 17.1417 14.3 18.3333 14.3C18.8833 14.3 19.25 14.6667 19.25 15.2167V18.3333C19.25 18.8833 18.8833 19.25 18.3333 19.25C14.2004 19.25 10.2367 17.6082 7.31425 14.6857C4.39181 11.7633 2.75 7.79962 2.75 3.66667C2.75 3.11667 3.11667 2.75 3.66667 2.75H6.875C7.425 2.75 7.79167 3.11667 7.79167 3.66667C7.79167 4.76667 7.975 5.86667 8.34167 6.96667C8.43333 7.24167 8.34167 7.60833 8.15833 7.88333L6.05 9.9Z" fill="white"/>
</g>
</svg>
